PathFileType	4	(X/Y/Z)	Walk8.trc
DataRate	CameraRate	NumFrames	NumMarkers	Units	OrigDataRate	OrigDataStartFrame	OrigNumFrames
200.000000	200.000000	4	59	mm	200.000000	406	625
Frame#	Times		LFHD		RFHD		CLAV		STRN		LASI		RASI		RACR1		RUA1		RElbow		RFA1		RWRR		RWRU		RCAR		LACR1		LUA1		LElbow		LFA1		LWRR		RTB1		RTB2		LTH1		LTH3		LTH2		LMFC		LTB1		LTB2		LMT1		RTH2		LTB4		LLFC		LCAR		LWRU		LTB3		LMT5		LToe		RTB4		RTH3		RTB3		RMFC		LTH4		RTH1		RTH4		RMMAL		RBHD		RElbowM		RLFC		RToe		RBack		RMT1		RCAL		LLMAL		LElbowM		LMMAL		RPSI		C7		T10		LPSI		LBHD		LCAL
			X1	Y1	Z1	X2	Y2	Z2	X3	Y3	Z3	X4	Y4	Z4	X5	Y5	Z5	X6	Y6	Z6	X7	Y7	Z7	X8	Y8	Z8	X9	Y9	Z9	X10	Y10	Z10	X11	Y11	Z11	X12	Y12	Z12	X13	Y13	Z13	X14	Y14	Z14	X15	Y15	Z15	X16	Y16	Z16	X17	Y17	Z17	X18	Y18	Z18	X19	Y19	Z19	X20	Y20	Z20	X21	Y21	Z21	X22	Y22	Z22	X23	Y23	Z23	X24	Y24	Z24	X25	Y25	Z25	X26	Y26	Z26	X27	Y27	Z27	X28	Y28	Z28	X29	Y29	Z29	X30	Y30	Z30	X31	Y31	Z31	X32	Y32	Z32	X33	Y33	Z33	X34	Y34	Z34	X35	Y35	Z35	X36	Y36	Z36	X37	Y37	Z37	X38	Y38	Z38	X39	Y39	Z39	X40	Y40	Z40	X41	Y41	Z41	X42	Y42	Z42	X43	Y43	Z43	X44	Y44	Z44	X45	Y45	Z45	X46	Y46	Z46	X47	Y47	Z47	X48	Y48	Z48	X49	Y49	Z49	X50	Y50	Z50	X51	Y51	Z51	X52	Y52	Z52	X53	Y53	Z53	X54	Y54	Z54	X55	Y55	Z55	X56	Y56	Z56	X57	Y57	Z57	X58	Y58	Z58	X59	Y59	Z59

406	2.03	337.82	1633.8	78.178	342.68	1626.9	-20.692	354.44	1370	47.512	425.97	1213.6	44.762	270.15	958.18	-137.47	342.4	943.38	224.75	239.6	1457.3	215.71	188.4	1302.2	338.49	170.77	1154.4	392.38	173.97	998.89	410.51	167.28	876.61	344.34	165.83	885.22	425.7	173.45	792.41	394.18	234.33	1424.6	-135.17	254.49	1254.1	-224.84	313.53	1103.4	-281.02	405.57	998.12	-284.81	508.59	925.07	-216.46	516.9	403.49	159.73	510.47	311.28	210.4	155.29	730.28	-154.33	126.24	562.71	-134.38	198.34	638.55	-134.73	122.9	463.8	23.972	89.293	338.92	-64.485	6.3843	283.94	-93.999	-62.7	34.895	-1.7795	398.66	714.1	236.52	38.768	275.13	-41.433	85.127	484.2	-128.06	572.11	866.4	-245.18	486.22	884.79	-274.81	-20.196	213.87	-20.875	-135.15	33.312	-68.698	-16.305	24.119	-44.027	529.08	317.74	152.21	394.48	608.99	240.2	540.88	232.73	144.78	408.48	496.15	81.465	140.18	647.45	-143.94	307.01	755.65	266.64	351.65	682.35	253.98	534.28	91.836	86.661	198.9	1538.1	-33.984	108.73	1090.8	297.24	425.65	501.75	234.21	705.33	72.9	156.81	95.093	1335.5	163.34	669.07	56.791	121.88	449.16	39.76	119.28	-185.93	136.67	-9.2479	271.8	1019.1	-195.97	-151.32	132.64	73.85	58.686	992.92	117.48	157.52	1445.3	45.594	96.604	1132.2	71.154	52.768	1008.8	35.533	206.79	1554.2	112.15	-238.97	138.15	52.608
407	2.035	344.76	1633.8	79.637	349.55	1626.9	-19.241	361.61	1370.1	48.92	433.4	1213.8	45.915	277.98	958.09	-136.22	349.82	943.66	224.98	246.63	1456.8	217.23	195.62	1301.3	339.62	178.08	1153.4	393.27	181.24	997.88	411.28	174.54	875.62	345.02	173.07	884.21	426.38	180.81	791.47	394.82	241.48	1424.8	-133.83	260.83	1254.2	-223.63	318.99	1103.1	-279.85	410.42	997.4	-283.82	513.11	923.73	-215.65	523.24	402.91	159.91	515.94	310.79	210.63	162.77	730.13	-154.16	133.68	562.48	-134.82	205.77	638.34	-134.7	130.08	463.32	23.293	95.061	338.9	-65.312	11.44	285.07	-94.869	-62.47	34.643	-1.5529	406.03	714.92	236.79	43.641	275.78	-42.277	92.392	484.17	-128.79	576.25	864.67	-244.43	490.42	883.55	-273.96	-16.043	215.26	-21.799	-134.34	34.436	-68.725	-16.679	24.076	-43.839	534.28	317.02	152.3	402.35	609.81	240.97	544.9	231.86	144.78	415.51	497.12	82.214	147.66	647.25	-144.08	314.38	756.21	267.17	359.25	683.04	254.58	536.05	91.11	86.519	205.83	1538.1	-32.493	116.12	1089.9	298.04	433.37	502.24	234.96	707.53	68.355	155.99	102.18	1335.1	164.53	670.57	53.121	121.31	450.1	40.578	119.46	-182.74	140.18	-10.261	276.92	1019	-194.82	-148.19	135.72	72.809	65.85	992.88	118.04	164.6	1445.3	47.065	103.6	1132	71.559	60.003	1008.5	35.818	213.86	1554	113.67	-235.43	142.96	51.55
408	2.04	351.69	1633.9	81.088	356.41	1627.1	-17.796	368.75	1370.2	50.315	440.78	1214.1	47.066	285.84	958.09	-134.9	357.22	944.09	225.29	253.65	1456.4	218.73	202.87	1300.5	340.73	185.45	1152.6	394.13	188.6	996.97	412.03	181.9	874.71	345.69	180.43	883.29	427.04	188.29	790.63	395.45	248.66	1425	-132.51	267.16	1254.3	-222.43	324.37	1103	-278.68	415.13	996.69	-282.83	517.48	922.37	-214.86	529.48	402.34	160.13	521.27	310.3	210.85	170.4	730.04	-154	141.37	562.29	-135.31	213.38	638.21	-134.66	137.52	462.87	22.555	101.11	338.97	-66.233	16.777	286.3	-95.829	-62.203	34.395	-1.2969	413.37	715.81	237.14	48.812	276.52	-43.224	99.94	484.19	-129.6	580.19	862.9	-243.7	494.43	882.3	-273.12	-11.591	216.73	-22.827	-133.4	35.676	-68.768	-17.072	24.005	-43.65	539.37	316.32	152.41	410.13	610.71	241.81	548.77	231.04	144.76	422.79	498.27	82.866	155.35	647.11	-144.27	321.72	756.9	267.77	366.81	683.83	255.27	537.65	90.479	86.347	212.76	1538	-31.022	123.57	1089.1	298.83	440.97	502.68	235.72	709.51	64.149	155.15	109.24	1334.9	165.7	671.89	49.745	120.73	450.96	41.363	119.62	-179.25	143.81	-11.351	281.92	1019.1	-193.64	-144.73	138.9	71.68	72.99	992.88	118.55	171.69	1445.3	48.498	110.56	1132	71.94	67.213	1008.2	36.001	220.92	1553.9	115.18	-231.5	147.94	50.416
409	2.045	358.62	1634	82.529	363.28	1627.3	-16.363	375.87	1370.4	51.694	448.11	1214.5	48.21	293.71	958.17	-133.52	364.58	944.67	225.69	260.65	1456.1	220.19	210.15	1299.8	341.82	192.88	1151.8	394.94	196.05	996.15	412.75	189.37	873.9	346.34	187.89	882.46	427.68	195.89	789.88	396.07	255.86	1425.4	-131.2	273.49	1254.6	-221.25	329.68	1102.9	-277.5	419.7	996	-281.84	521.69	920.99	-214.08	535.6	401.77	160.36	526.42	309.8	211.04	178.16	730.01	-153.86	149.31	562.14	-135.87	221.2	638.17	-134.65	145.23	462.44	21.75	107.44	339.1	-67.254	22.409	287.62	-96.879	-61.88	34.162	-1.0162	420.65	716.72	237.59	54.298	277.34	-44.278	107.78	484.24	-130.48	583.95	861.08	-242.99	498.26	881.05	-272.28	-6.8219	218.29	-23.961	-132.3	37.041	-68.822	-17.471	23.899	-43.466	544.31	315.64	152.5	417.77	611.62	242.68	552.5	230.26	144.71	430.3	499.53	83.409	163.23	647.03	-144.51	329.03	757.67	268.43	374.29	684.66	256.02	539.09	89.923	86.129	219.68	1538.1	-29.578	131.08	1088.4	299.59	448.42	503.06	236.46	711.28	60.276	154.29	116.28	1334.8	166.86	673.03	46.655	120.13	451.76	42.103	119.75	-175.41	147.55	-12.511	286.82	1019.2	-192.45	-140.91	142.17	70.469	80.105	992.93	119	178.77	1445.5	49.887	117.51	1132	72.306	74.399	1008	36.093	227.97	1553.9	116.67	-227.15	153.06	49.216
